<svg version="1.0" xmlns="http://www.w3.org/2000/svg"
 width="1000.000000pt" height="1000.000000pt" viewBox="0 0 1000.000000 1000.000000"
 preserveAspectRatio="xMidYMid meet">

<g transform="translate(0.000000,1000.000000) scale(0.100000,-0.100000)"
fill="#000000" stroke="none">
<path d="M4550 8993 l-475 -278 -600 -5 -600 -5 -294 -516 -294 -516 -477
-278 -478 -279 -4 -565 -3 -566 -269 -470 c-147 -258 -275 -481 -283 -495 -14
-24 -4 -42 261 -508 l276 -482 0 -598 1 -597 506 -291 506 -291 276 -484 276
-484 575 -5 575 -5 478 -277 c427 -248 481 -277 500 -266 12 6 227 131 477
277 l455 266 595 5 595 5 287 505 c159 278 296 512 306 520 10 8 230 138 489
289 l471 275 4 575 4 576 263 460 c145 253 270 471 278 485 14 24 5 42 -256
499 l-271 474 0 606 -1 606 -513 295 -513 295 -274 480 -275 480 -569 5 -570
5 -478 278 c-263 152 -479 277 -480 277 -2 0 -216 -125 -477 -277z m912 -33
l424 -245 -422 -3 c-232 -1 -617 -1 -855 0 l-432 3 424 247 c233 136 427 247
430 245 4 -1 197 -112 431 -247z m-1493 -304 c-4 -4 -1537 -899 -1572 -917
l-20 -11 20 33 c12 19 123 214 248 434 125 220 236 415 247 433 l20 32 530 0
c292 0 529 -2 527 -4z m2829 -467 c449 -259 824 -478 833 -487 9 -9 240 -410
514 -890 l498 -874 -5 -951 -4 -952 -483 -845 -482 -845 -871 -507 -871 -508
-949 0 -949 0 -834 481 -833 480 -497 872 -498 872 5 970 5 970 474 830 474
830 875 511 875 512 953 1 953 1 817 -471z m514 81 c120 -212 231 -405 244
-428 22 -37 23 -42 7 -34 -10 6 -346 200 -748 431 l-729 421 503 -2 503 -3
220 -385z m928 -913 l405 -233 2 -310 c2 -170 0 -409 -5 -532 l-7 -224 -450
788 c-247 433 -452 791 -454 797 -2 5 21 -4 50 -21 30 -17 236 -136 459 -265z
m-6435 -528 l-425 -744 0 500 1 500 422 246 c232 135 423 245 425 244 1 -1
-189 -337 -423 -746z m-485 -1829 c0 -473 -3 -860 -7 -860 -10 1 -488 840
-488 855 0 11 485 865 491 865 2 0 4 -387 4 -860z m7610 435 c122 -214 229
-401 237 -415 14 -24 5 -41 -231 -455 l-246 -430 0 855 c0 498 4 850 9 845 5
-6 109 -185 231 -400z m-7102 -2314 c243 -425 436 -771 429 -768 -6 3 -210
119 -452 259 l-440 254 -3 230 c-4 283 8 819 18 807 4 -4 206 -356 448 -782z
m6802 287 l0 -503 -387 -225 c-213 -124 -409 -238 -437 -254 -49 -28 -50 -28
-35 -5 9 13 204 354 434 757 230 402 419 732 421 732 2 0 4 -226 4 -502z
m-1279 -1619 l-259 -454 -528 -2 c-325 -2 -523 1 -514 7 92 56 1556 907 1558
906 1 -2 -114 -207 -257 -457z m-4166 -33 l739 -426 -508 2 -509 3 -219 385
c-120 212 -231 405 -245 429 -17 29 -21 42 -11 39 8 -3 347 -198 753 -432z
m2639 -484 c-5 -5 -196 -118 -425 -251 l-416 -242 -414 239 c-228 131 -423
244 -434 250 -15 9 195 11 839 12 473 0 856 -4 850 -8z"/>
</g>
</svg>