<svg version="1.0" xmlns="http://www.w3.org/2000/svg"
 width="850.000000pt" height="860.000000pt" viewBox="0 0 850.000000 860.000000"
 preserveAspectRatio="xMidYMid meet">

<g transform="translate(0.000000,860.000000) scale(0.100000,-0.100000)"
fill="#000000" stroke="none">
<path d="M2630 6373 c-188 -10 -409 -12 -757 -9 l-493 5 0 -64 c0 -36 2 -65 4
-65 13 0 365 -112 384 -122 13 -7 31 -26 40 -43 16 -28 17 -166 17 -1780 0
-962 -3 -1762 -8 -1777 -11 -42 -43 -57 -246 -118 l-186 -57 -3 -33 c-2 -19
-1 -48 3 -66 l6 -32 527 1 c290 1 714 -2 942 -7 306 -7 446 -6 535 3 282 28
515 81 725 166 635 255 1056 816 1179 1572 46 280 53 733 16 973 -81 523 -304
896 -685 1143 -275 178 -611 278 -1060 317 -157 13 -619 10 -940 -7z m780
-259 c445 -55 774 -238 979 -544 200 -300 294 -698 294 -1250 0 -684 -147
-1154 -458 -1465 -230 -231 -517 -355 -914 -396 -179 -18 -811 0 -888 26 -10
4 -13 375 -13 1814 l0 1809 98 8 c338 25 684 24 902 -2z"/>
<path d="M6225 5143 c-234 -29 -355 -61 -482 -128 -191 -101 -296 -217 -359
-400 -26 -75 -28 -90 -28 -240 0 -146 2 -167 27 -240 37 -110 89 -196 172
-279 118 -120 187 -160 698 -405 202 -97 286 -151 363 -233 106 -115 148 -255
125 -413 -38 -250 -213 -393 -523 -425 -105 -10 -241 -3 -345 20 -63 14 -176
50 -187 61 -5 4 -39 133 -76 286 l-67 278 -34 3 c-62 5 -62 6 -114 -355 -26
-183 -45 -339 -42 -347 3 -8 55 -26 134 -44 339 -81 579 -99 828 -62 177 26
260 51 392 116 215 106 353 277 397 491 73 358 -35 621 -335 816 -100 65 -171
101 -429 219 -196 89 -301 146 -375 201 -159 120 -235 258 -235 426 0 236 131
401 371 467 48 14 100 18 209 18 126 0 160 -3 255 -28 61 -15 115 -33 121 -39
6 -7 40 -122 75 -256 l63 -243 39 5 c21 3 40 7 42 9 6 6 115 593 115 617 0 28
-20 35 -171 60 -236 39 -508 59 -624 44z"/>
</g>
</svg>